<?xml version="1.0" standalone="no"?><!DOCTYPE svg PUBLIC "-//W3C//DTD SVG 1.1//EN" "http://www.w3.org/Graphics/SVG/1.1/DTD/svg11.dtd"><svg class="icon" height="512" viewBox="0 0 1024 1024" version="1.1" xmlns="http://www.w3.org/2000/svg"><path d="M369.714286 685.714286q2.285714-3.428571-1.714286-7.428572-5.142857-4-8-1.142857-2.285714 3.428571 1.714286 7.428572 5.142857 4 8 1.142857z m-16-23.428572q-2.857143-4-6.857143-2.285714-3.428571 2.285714 0 6.857143 4 4.571429 6.857143 2.857143 3.428571-2.285714 0-7.428572z m-23.428572-22.857143q1.142857-2.285714-2.857143-4.571428-4-1.142857-4.571428 1.142857-1.714286 2.857143 2.285714 4.571429 4.571429 1.142857 5.142857-1.142858z m12 13.142858q1.142857-0.571429 0.857143-2.571429t-2-3.142857q-3.428571-4-5.714286-1.714286t0.571429 6.285714q3.428571 3.428571 6.285714 1.142858z m49.142857 42.857142q1.142857-4-5.142857-6.285714-5.142857-1.714286-7.428571 2.285714-1.142857 4 5.142857 6.285715 5.142857 1.714286 7.428571-2.285715z m24 1.714286q0-4.571429-6.857142-4.571428-5.714286 0-5.714286 4.571428t6.285714 4.571429 6.285714-4.571429z m22.285715-4q-1.142857-4-7.428572-2.857143t-5.142857 5.142857q1.142857 4.571429 6.857143 3.428572t5.714286-5.714286z m366.857143-181.142857q0-121.142857-85.714286-206.857143T512 219.428571 305.142857 305.142857 219.428571 512q0 95.428571 56 171.714286T419.428571 789.714286q10.285714 1.714286 15.142858-2.857143t4.857142-11.428572q0-29.714286-0.571428-54.285714-3.428571 0.571429-8.857143 1.428572t-20.285714 1.142857-27.428572-2.285715-24.857143-11.428571T340.571429 686.285714q-13.142857-33.714286-32.571429-42.285714-1.142857-0.571429-2.571429-2l-4.571428-4.571429-4-5.428571 2.285714-4.285714 11.142857-2q3.428571 0 8.571429 1.142857t17.142857 8.857143 18.857143 20.285714q9.142857 16 21.428571 24t24.857143 8 21.714286-2 17.142857-5.428571q4-26.857143 18.857143-39.428572-28-3.428571-49.142857-10.571428t-41.714286-22.285715-31.714286-43.428571T325.142857 496.571429q0-45.142857 30.285714-78.285715-13.714286-35.428571 2.857143-77.714285 10.857143-3.428571 31.142857 4.285714T424 361.714286l14.857143 9.142857q33.142857-9.714286 73.142857-9.714286t73.142857 9.714286q6.285714-4 16.285714-10.285714t31.714286-14.857143 32.571429-5.142857q16.571429 42.285714 2.857143 77.714285 30.285714 33.142857 30.285714 78.285715 0 32.571429-8 57.428571t-20.285714 40-30.571429 25.428571-35.714286 14.857143-39.142857 6.857143q20 17.714286 20 54.285714 0 22.857143-0.285714 50.857143t-0.285714 29.142857q0 6.857143 4.857142 11.428572t15.142858 2.857143q88-29.714286 144-106t56-171.714286z m146.285714-274.285714v548.571428q0 68-48.285714 116.285715T786.285714 950.857143H237.714286q-68 0-116.285715-48.285714T73.142857 786.285714V237.714286q0-68 48.285714-116.285715T237.714286 73.142857h548.571428q68 0 116.285715 48.285714T950.857143 237.714286z" fill="" /></svg>